# xmcd
#
# Track frame offsets: 
#        150
#        16472
#        28663
#        52124
#        70554
#        85796
#        108973
#        127497
#        152086
#
# Disc length: 2560 seconds
#
# Revision: 0
# Processed by: cddbd v1.5.2PL0 Copyright (c) Steve Scherf et al.
# Submitted via: ExactAudioCopy v0.99pb5
#
DISCID=7409fe09
DTITLE=Stevie Ray Vaughan and Double Trouble - SRV Alpine Valley 1990
DYEAR=1900
DGENRE=Blues
TTITLE0=Collins' Shuffle
TTITLE1=The House Is Rockin'
TTITLE2=Tight Rope
TTITLE3=The Things That I Used To Do
TTITLE4=Let Me Love You Baby
TTITLE5=Leave My Girl Alone
TTITLE6=Pride And Joy
TTITLE7=Wall Of Denial
TTITLE8=Riviera Paradise
EXTD=
EXTT0=
EXTT1=
EXTT2=
EXTT3=
EXTT4=
EXTT5=
EXTT6=
EXTT7=
EXTT8=
PLAYORDER=
